<svg xmlns="http://www.w3.org/2000/svg" viewBox="0 0 1024 1024" role="img" aria-label="LinkAI Route console illustration">
  <defs>
    <linearGradient id="bg" x1="0" y1="0" x2="1" y2="1">
      <stop offset="0%" stop-color="#FFFCF7" />
      <stop offset="100%" stop-color="#F1E4D6" />
    </linearGradient>
    <linearGradient id="accent" x1="0" y1="0" x2="1" y2="0">
      <stop offset="0%" stop-color="#0F6B5D" />
      <stop offset="100%" stop-color="#1B8D7B" />
    </linearGradient>
    <linearGradient id="secondary" x1="0" y1="0" x2="1" y2="0">
      <stop offset="0%" stop-color="#C35B32" />
      <stop offset="100%" stop-color="#D67952" />
    </linearGradient>
    <pattern id="grid" width="56" height="56" patternUnits="userSpaceOnUse">
      <path d="M56 0H0V56" fill="none" stroke="#E5D8C8" stroke-width="1" opacity="0.35" />
    </pattern>
    <filter id="shadow" x="-20%" y="-20%" width="140%" height="140%">
      <feDropShadow dx="0" dy="24" stdDeviation="24" flood-color="#2D2620" flood-opacity="0.12" />
    </filter>
  </defs>

  <rect width="1024" height="1024" rx="80" fill="url(#bg)" />
  <rect width="1024" height="1024" rx="80" fill="url(#grid)" opacity="0.4" />

  <g filter="url(#shadow)">
    <rect x="88" y="110" width="848" height="804" rx="36" fill="#FFFDF9" stroke="#E7D9C9" stroke-width="2" />
  </g>

  <rect x="88" y="110" width="848" height="90" rx="36" fill="#F3E6D6" />
  <rect x="88" y="200" width="180" height="714" rx="28" fill="#FBF5EC" />

  <circle cx="128" cy="154" r="7" fill="#C35B32" />
  <circle cx="152" cy="154" r="7" fill="#E0A86A" />
  <circle cx="176" cy="154" r="7" fill="#0F6B5D" />
  <rect x="236" y="144" width="130" height="10" rx="5" fill="#D8C9B7" />
  <rect x="236" y="162" width="86" height="8" rx="4" fill="#E2D5C6" />
  <rect x="712" y="140" width="190" height="24" rx="12" fill="#0F6B5D" opacity="0.2" />
  <rect x="734" y="146" width="120" height="8" rx="4" fill="#0F6B5D" />

  <g fill="#DCCDBD">
    <circle cx="118" cy="252" r="6" fill="#0F6B5D" />
    <rect x="132" y="248" width="96" height="10" rx="5" />
    <circle cx="118" cy="284" r="6" fill="#C35B32" opacity="0.8" />
    <rect x="132" y="280" width="110" height="10" rx="5" />
    <circle cx="118" cy="316" r="6" fill="#0F6B5D" opacity="0.7" />
    <rect x="132" y="312" width="88" height="10" rx="5" />
    <circle cx="118" cy="348" r="6" fill="#0F6B5D" opacity="0.6" />
    <rect x="132" y="344" width="102" height="10" rx="5" />
    <circle cx="118" cy="380" r="6" fill="#C35B32" opacity="0.7" />
    <rect x="132" y="376" width="76" height="10" rx="5" />
  </g>

  <g>
    <rect x="292" y="224" width="190" height="100" rx="18" fill="#FFFBF6" stroke="#E6D9C8" stroke-width="2" />
    <rect x="312" y="248" width="70" height="8" rx="4" fill="#E0D2C2" />
    <rect x="312" y="266" width="120" height="10" rx="5" fill="url(#accent)" />
    <rect x="312" y="286" width="90" height="8" rx="4" fill="#E6DACB" />

    <rect x="506" y="224" width="190" height="100" rx="18" fill="#FFFBF6" stroke="#E6D9C8" stroke-width="2" />
    <rect x="526" y="248" width="64" height="8" rx="4" fill="#E0D2C2" />
    <rect x="526" y="266" width="132" height="10" rx="5" fill="url(#secondary)" />
    <rect x="526" y="286" width="80" height="8" rx="4" fill="#E6DACB" />

    <rect x="720" y="224" width="190" height="100" rx="18" fill="#FFFBF6" stroke="#E6D9C8" stroke-width="2" />
    <rect x="740" y="248" width="90" height="8" rx="4" fill="#E0D2C2" />
    <rect x="740" y="266" width="110" height="10" rx="5" fill="url(#accent)" />
    <rect x="740" y="286" width="70" height="8" rx="4" fill="#E6DACB" />
  </g>

  <g>
    <rect x="292" y="350" width="618" height="230" rx="24" fill="#FFFBF6" stroke="#E6D9C8" stroke-width="2" />
    <line x1="316" y1="404" x2="886" y2="404" stroke="#EDE1D3" stroke-width="2" />
    <line x1="316" y1="454" x2="886" y2="454" stroke="#EDE1D3" stroke-width="2" />
    <line x1="316" y1="504" x2="886" y2="504" stroke="#EDE1D3" stroke-width="2" />
    <path d="M316 514 L370 478 L430 506 L500 462 L570 490 L640 442 L710 470 L780 430 L860 452" fill="none" stroke="#0F6B5D" stroke-width="4" stroke-linecap="round" stroke-linejoin="round" />
    <circle cx="370" cy="478" r="5" fill="#0F6B5D" />
    <circle cx="500" cy="462" r="5" fill="#C35B32" />
    <circle cx="640" cy="442" r="5" fill="#0F6B5D" />
    <circle cx="780" cy="430" r="5" fill="#C35B32" />
    <rect x="316" y="370" width="120" height="10" rx="5" fill="#D8C9B7" />
    <rect x="316" y="386" width="70" height="8" rx="4" fill="#E2D5C6" />
  </g>

  <g>
    <rect x="292" y="610" width="300" height="190" rx="22" fill="#FFFBF6" stroke="#E6D9C8" stroke-width="2" />
    <rect x="312" y="634" width="110" height="10" rx="5" fill="#D8C9B7" />
    <rect x="312" y="662" width="210" height="12" rx="6" fill="#0F6B5D" opacity="0.35" />
    <rect x="312" y="686" width="168" height="12" rx="6" fill="#0F6B5D" opacity="0.25" />
    <rect x="312" y="710" width="190" height="12" rx="6" fill="#C35B32" opacity="0.3" />
    <rect x="312" y="734" width="140" height="12" rx="6" fill="#0F6B5D" opacity="0.3" />

    <rect x="612" y="610" width="300" height="190" rx="22" fill="#FFFBF6" stroke="#E6D9C8" stroke-width="2" />
    <rect x="632" y="634" width="130" height="10" rx="5" fill="#D8C9B7" />
    <rect x="632" y="660" width="230" height="10" rx="5" fill="#E4D7C7" />
    <rect x="632" y="682" width="210" height="10" rx="5" fill="#E4D7C7" />
    <rect x="632" y="704" width="190" height="10" rx="5" fill="#E4D7C7" />
    <rect x="632" y="726" width="220" height="10" rx="5" fill="#E4D7C7" />
    <circle cx="858" cy="661" r="4" fill="#0F6B5D" />
    <circle cx="838" cy="683" r="4" fill="#C35B32" />
    <circle cx="820" cy="705" r="4" fill="#0F6B5D" />
  </g>

  <circle cx="886" cy="836" r="32" fill="#0F6B5D" opacity="0.1" />
  <circle cx="886" cy="836" r="16" fill="#C35B32" opacity="0.2" />
</svg>
